<?xml version="1.0" encoding="utf-8"?>
<!-- Generator: Adobe Illustrator 17.0.0, SVG Export Plug-In . SVG Version: 6.00 Build 0)  -->
<!DOCTYPE svg PUBLIC "-//W3C//DTD SVG 1.1//EN" "http://www.w3.org/Graphics/SVG/1.1/DTD/svg11.dtd">
<svg version="1.1" id="Layer_1" xmlns="http://www.w3.org/2000/svg" xmlns:xlink="http://www.w3.org/1999/xlink" x="0px" y="0px"
	 width="640px" height="480px" viewBox="0 0 640 480" enable-background="new 0 0 640 480" xml:space="preserve">
<g>
	<rect x="21.789" y="260.258" fill="none" width="607.607" height="228.599"/>
	<text transform="matrix(1 0 0 1 21.7879 350.2454)" fill="#33B297" font-family="'Roboto-Bold'" font-size="118.1371">HabitChain</text>
	<g>
		<g>
			<path fill="#38AD8B" d="M317.358,143.362c-14.172-10.507-24.614-23.187-30.195-36.667c-5.337-12.89-6.151-26.426-2.291-38.111
				c5.935-17.974,21.536-29.139,40.713-29.139V67.07c-7.171,0-12.314,3.614-14.482,10.177c-3.315,10.038,0.643,27.565,22.708,43.923
				L317.358,143.362z"/>
		</g>
		<g>
			<path fill="#3B9E7D" d="M331.42,107.902c0.553-0.28,33.946-17.164,36.86-17.32c3.438-28.313-15.185-51.138-42.696-51.138V67.07
				C342.977,67.07,346.828,88.685,331.42,107.902z"/>
		</g>
		<g>
			<g>
				<path fill="#1E71B8" d="M325.584,225.924v-27.625c7.172,0,12.315-3.614,14.482-10.177c3.315-10.038-0.643-27.564-22.708-43.923
					l16.453-22.192c14.172,10.508,24.614,23.187,30.195,36.668c5.337,12.891,6.151,26.425,2.292,38.111
					C360.362,214.758,344.762,225.924,325.584,225.924z"/>
			</g>
			<g>
				<path fill="#1E71B8" d="M325.584,225.924v-27.625c7.172,0,12.315-3.614,14.482-10.177c3.315-10.038-0.643-27.564-22.708-43.923
					l16.453-22.192c14.172,10.508,24.614,23.187,30.195,36.668c5.337,12.891,6.151,26.425,2.292,38.111
					C360.362,214.758,344.762,225.924,325.584,225.924z"/>
			</g>
			<g>
				<path fill="#1E71B8" d="M325.584,225.924v-27.625c7.172,0,12.315-3.614,14.482-10.177c3.315-10.038-0.643-27.564-22.708-43.923
					l16.453-22.192c14.172,10.508,24.614,23.187,30.195,36.668c5.337,12.891,6.151,26.425,2.292,38.111
					C360.362,214.758,344.762,225.924,325.584,225.924z"/>
			</g>
			<g>
				<path fill="#3B9E7D" d="M366.3,196.782c-5.939,17.978-21.536,29.139-40.713,29.139v-27.625c7.171,0,12.314-3.614,14.48-10.177
					c3.315-10.034-0.646-27.565-22.707-43.919l16.453-22.194c8.232,6.105,15.205,12.94,20.697,20.244
					c3.967,5.265,7.161,10.774,9.497,16.426c2.365,5.707,3.841,11.542,4.415,17.288C369.146,183.191,368.45,190.274,366.3,196.782z"
					/>
			</g>
			<g>
				<path fill="#38AD8B" d="M311.105,188.119c-2.253-6.821-1.138-17.107,6.734-28.133c-6.316,2.461-26.629,9.821-33.898,8.777
					c-2.216,9.678-1.931,19.355,0.932,28.018c5.934,17.978,21.536,29.139,40.715,29.139v-27.625
					C318.415,198.296,313.271,194.683,311.105,188.119z"/>
			</g>
		</g>
		<path fill="#45BFA2" d="M282.743,90.236c1.238,12.354,6.459,23.851,14.011,33.84c-17.398-11.276-36.366-7.337-36.366,9.023
			l-0.066,0.006H232.78C233.2,106.098,254.891,87.38,282.743,90.236z"/>
		<path fill="#42D1AF" d="M343.59,133.105c-2.31,2.409-4.624,5.138-6.912,8.226c-10.503,14.172-23.184,24.615-36.664,30.194
			c-12.012,4.973-25.658,6.404-38.112,2.293c-18.459-6.1-29.123-21.796-29.123-40.714h27.608c0,7.171,3.614,12.31,10.178,14.481
			c10.768,3.559,24.674-1.779,36.973-14.481H343.59z"/>
		<path fill="#42D1AF" d="M418.405,133.105c0,15.824-7.95,29.741-21.26,37.239c-8.713,4.911-18.73,6.663-28.724,5.619
			c-1.232-12.377-6.459-23.819-13.912-33.713c10.056,6.088,21.929,8.054,29.078,4.027c4.918-2.771,7.194-7.481,7.194-13.172H418.405
			z"/>
		<path fill="#45BFA2" d="M418.405,133.099v0.006H390.78c0-7.172-3.613-12.316-10.177-14.487
			c-8.636-2.851-22.808-0.32-37.012,14.487h-36.051c8.664-8.964,19.359-28.372,43.615-38.427c12.89-5.338,26.426-6.149,38.112-2.287
			C407.238,98.325,418.405,113.922,418.405,133.099z"/>
	</g>
</g>
</svg>
