<?xml version="1.0" encoding="utf-8"?>
<!-- Generator: Adobe Illustrator 17.0.0, SVG Export Plug-In . SVG Version: 6.00 Build 0)  -->
<!DOCTYPE svg PUBLIC "-//W3C//DTD SVG 1.1//EN" "http://www.w3.org/Graphics/SVG/1.1/DTD/svg11.dtd">
<svg version="1.1" id="Layer_1" xmlns="http://www.w3.org/2000/svg" xmlns:xlink="http://www.w3.org/1999/xlink" x="0px" y="0px"
	 width="400px" height="100px" viewBox="0 0 400 100" enable-background="new 0 0 400 100" xml:space="preserve">
<g>
	<rect x="106.261" y="28.925" fill="none" width="285.468" height="107.401"/>
	<text transform="matrix(1 0 0 1 106.2593 71.2021)" fill="#FFFFFF" font-family="'Roboto-Bold'" font-size="55.5037">HabitChain</text>
	<g>
		<g>
			<path fill="#B1E0D0" d="M48.008,56.16c-6.658-4.937-11.564-10.894-14.187-17.227c-2.508-6.056-2.89-12.415-1.077-17.905
				c2.789-8.445,10.118-13.69,19.128-13.69v12.979c-3.369,0-5.785,1.698-6.804,4.781c-1.558,4.716,0.302,12.951,10.669,20.636
				L48.008,56.16z"/>
		</g>
		<g>
			<path fill="#FFFFFF" d="M54.614,39.5c0.26-0.131,15.948-8.064,17.318-8.137C73.547,18.06,64.798,7.337,51.872,7.337v12.979
				C60.044,20.316,61.853,30.471,54.614,39.5z"/>
		</g>
		<g>
			<g>
				<path fill="#FFFFFF" d="M51.872,94.949V81.97c3.37,0,5.786-1.698,6.804-4.781c1.557-4.716-0.302-12.95-10.669-20.636
					l7.73-10.426c6.658,4.937,11.564,10.894,14.186,17.227c2.507,6.057,2.89,12.415,1.077,17.905
					C68.212,89.703,60.882,94.949,51.872,94.949z"/>
			</g>
			<g>
				<path fill="#FFFFFF" d="M51.872,94.949V81.97c3.37,0,5.786-1.698,6.804-4.781c1.557-4.716-0.302-12.95-10.669-20.636
					l7.73-10.426c6.658,4.937,11.564,10.894,14.186,17.227c2.507,6.057,2.89,12.415,1.077,17.905
					C68.212,89.703,60.882,94.949,51.872,94.949z"/>
			</g>
			<g>
				<path fill="#FFFFFF" d="M51.872,94.949V81.97c3.37,0,5.786-1.698,6.804-4.781c1.557-4.716-0.302-12.95-10.669-20.636
					l7.73-10.426c6.658,4.937,11.564,10.894,14.186,17.227c2.507,6.057,2.89,12.415,1.077,17.905
					C68.212,89.703,60.882,94.949,51.872,94.949z"/>
			</g>
			<g>
				<path fill="#FFFFFF" d="M71.002,81.258c-2.79,8.447-10.118,13.69-19.128,13.69V81.969c3.369,0,5.786-1.698,6.803-4.781
					c1.558-4.714-0.304-12.951-10.669-20.634l7.73-10.427c3.868,2.868,7.144,6.079,9.724,9.511c1.864,2.474,3.364,5.062,4.462,7.717
					c1.111,2.681,1.804,5.423,2.074,8.122C72.339,74.872,72.012,78.2,71.002,81.258z"/>
			</g>
			<g>
				<path fill="#B1E0D0" d="M45.07,77.188c-1.059-3.205-0.535-8.037,3.164-13.217c-2.967,1.156-12.511,4.614-15.926,4.124
					c-1.041,4.547-0.907,9.094,0.438,13.164c2.788,8.447,10.118,13.69,19.129,13.69V81.969
					C48.504,81.969,46.087,80.271,45.07,77.188z"/>
			</g>
		</g>
		<path fill="#D3EDE5" d="M31.745,31.2c0.581,5.804,3.034,11.206,6.583,15.899c-8.174-5.298-17.086-3.447-17.086,4.239l-0.031,0.003
			H8.271C8.468,38.652,18.659,29.858,31.745,31.2z"/>
		<path fill="#FFFFFF" d="M60.332,51.341c-1.085,1.132-2.173,2.414-3.247,3.865C52.15,61.864,46.193,66.77,39.859,69.392
			c-5.643,2.336-12.055,3.009-17.906,1.077c-8.673-2.866-13.683-10.24-13.683-19.128h12.971c0,3.369,1.698,5.783,4.782,6.803
			c5.059,1.672,11.593-0.836,17.371-6.803H60.332z"/>
		<path fill="#FFFFFF" d="M95.482,51.341c0,7.434-3.735,13.973-9.989,17.496c-4.094,2.307-8.8,3.13-13.495,2.64
			c-0.579-5.815-3.035-11.191-6.536-15.839c4.725,2.86,10.303,3.784,13.662,1.892c2.311-1.302,3.38-3.515,3.38-6.188H95.482z"/>
		<path fill="#D3EDE5" d="M95.482,51.338v0.003H82.503c0-3.369-1.698-5.786-4.781-6.806c-4.057-1.339-10.716-0.151-17.389,6.806
			H43.394c4.07-4.212,9.095-13.33,20.491-18.054c6.056-2.508,12.415-2.889,17.906-1.075C90.235,35,95.482,42.328,95.482,51.338z"/>
	</g>
</g>
</svg>
